<?xml version="1.0" encoding="UTF-8"?>
<svg id="Layer_1" data-name="Layer 1" xmlns="http://www.w3.org/2000/svg" viewBox="0 0 390.13 399.32">
  <defs>
    <style>
      .cls-1 {
        fill: #0db4ef;
      }

      .cls-2 {
        fill: #ad13ad;
      }

      .cls-3 {
        fill: #2fed39;
      }
    </style>
  </defs>
  <path class="cls-2" d="m277.83,250.4c-22.47,20.49-42.73,43.33-60.43,68.14-.86,1.2-1.79,2.17-2.78,2.92-2.81,2.66-6.59,4.28-10.76,4.28-8.66,0-15.67-7.01-15.67-15.67,0-2.56.61-4.97,1.7-7.1.4-.93.94-1.88,1.64-2.86,19.01-26.65,40.77-51.17,64.9-73.17,7.13-6.51,17.7-6.08,23.31.65,5.62,6.74,4.64,16.82-1.91,22.81Z"/>
  <path class="cls-2" d="m290.99,178.08c0,5.64-2.95,10.59-7.4,13.37-.15.14-.31.26-.47.38-45.23,34.2-84.01,76.32-114.38,124.38-5.24,8.27-15.37,11.65-23,7.3-7.61-4.33-9.52-15.31-3.86-24.25,32.41-51.29,73.8-96.25,122.06-132.75,1.02-.77,2.01-1.39,2.96-1.87,2.41-1.5,5.26-2.36,8.3-2.36,8.72,0,15.79,7.07,15.79,15.8Z"/>
  <path class="cls-2" d="m161.23,254.3c-13.78,17.83-26.42,36.61-37.8,56.21-.39.68-.78,1.27-1.16,1.8-2.73,4.56-7.73,7.61-13.44,7.61-8.65,0-15.67-7.01-15.67-15.67,0-1.79.3-3.52.87-5.12v-.02c.39-1.45,1.91-4.51,1.91-4.51,11.69-20.14,24.62-39.45,38.7-57.83v.02c-2.07,2.68-3.3,6.03-3.3,9.67,0,8.76,7.11,15.87,15.87,15.87,5.17,0,9.76-2.47,12.65-6.29.01,0,.02,0,.03,0,.44-.58.89-1.16,1.34-1.73Z"/>
  <path class="cls-2" d="m238.26,113.27c0,5.16-2.47,9.75-6.28,12.64-.03.02-.06.04-.08.06-53.18,40.23-98.01,89.22-133.72,145.75-6.17,9.74-17.01,14.36-24.64,10.02-7.62-4.33-8.83-16.53-2.24-26.94,37.43-59.26,85.19-111.23,140.8-153.56.47-.37.95-.73,1.42-1.09.03-.02.05-.04.09-.06,2.51-1.68,5.54-2.67,8.8-2.67,8.75,0,15.85,7.1,15.85,15.85Z"/>
  <path class="cls-3" d="m197.8,269.7c0,2.69-.67,5.21-1.85,7.43-.06.1-.12.21-.17.32-.42.76-.92,1.52-1.51,2.29-20.46,26.48-38.17,55.2-52.73,85.77-.4.84-.82,1.57-1.27,2.18-2.68,4.79-7.8,8.02-13.68,8.02-8.65,0-15.67-7.01-15.67-15.67,0-1.71.27-3.35.78-4.89.18-.93.56-2.01,1.16-3.26,15.53-32.63,34.43-63.29,56.27-91.55.03-.04.07-.09.11-.13.15-.2.31-.4.47-.6.37-.44.74-.84,1.11-1.21.15-.15.31-.3.46-.44.75-.68,1.57-1.29,2.44-1.82.06-.04.11-.07.17-.09,2.36-1.41,5.11-2.21,8.05-2.21,8.76,0,15.86,7.1,15.86,15.86Z"/>
  <path class="cls-3" d="m173.72,256.14c-.87.53-1.69,1.14-2.44,1.82.81-.76,1.62-1.36,2.44-1.82Z"/>
  <path class="cls-1" d="m353.99,91.12c0,5.04-2.35,9.53-6.02,12.42-.11.11-.23.2-.35.28-.4.31-.83.59-1.26.86-.4.26-.82.49-1.28.71-20.58,9.91-40.38,21.12-59.29,33.55-1.05.69-2.1,1.38-3.14,2.08-1,.66-1.98,1.32-2.97,2-.09.05-.17.11-.26.17-1.01.68-2.01,1.37-3.01,2.06-2.07,1.42-4.13,2.86-6.17,4.32-1.03.72-2.05,1.45-3.06,2.19-1.11.8-2.22,1.6-3.32,2.42-.92.67-1.84,1.34-2.75,2.03-.86.63-1.71,1.27-2.56,1.91-1.2.9-2.39,1.81-3.58,2.73-.95.72-1.89,1.45-2.83,2.19-.99.77-1.98,1.54-2.96,2.32-.9.71-1.8,1.42-2.69,2.15-3.01,2.4-6,4.85-8.96,7.34-.96.8-1.91,1.6-2.86,2.42-2.5,2.13-4.98,4.28-7.44,6.45-.74.66-1.48,1.32-2.22,1.99-1.49,1.33-2.98,2.68-4.45,4.02-.91.84-1.81,1.67-2.71,2.51-.52.49-1.05.98-1.57,1.47-.77.72-1.53,1.44-2.3,2.17-2.34,2.22-4.66,4.47-6.96,6.74-.89.87-1.78,1.75-2.66,2.64l-1.48,1.48c-.75.76-1.51,1.53-2.26,2.3-.82.84-1.64,1.68-2.46,2.52-.92.96-1.84,1.92-2.75,2.88-.87.91-1.72,1.82-2.57,2.73-2.26,2.41-4.49,4.83-6.69,7.28-.77.85-1.54,1.71-2.31,2.57-2.21,2.5-4.41,5.01-6.58,7.55-.63.73-1.26,1.47-1.88,2.21-.81.96-1.61,1.92-2.41,2.88-.8.96-1.6,1.92-2.39,2.89-.8.96-1.59,1.94-2.37,2.91-1.74,2.15-3.46,4.32-5.17,6.5-.61.77-1.21,1.55-1.81,2.34-.45.57-.9,1.15-1.34,1.73,0,0-.02,0-.03,0-2.89,3.82-7.48,6.29-12.65,6.29-8.76,0-15.87-7.11-15.87-15.87,0-3.64,1.23-6.99,3.3-9.67v-.02c.44-.57.88-1.15,1.33-1.72.05-.08.11-.15.17-.23.79-1.02,1.58-2.04,2.38-3.05.82-1.05,1.64-2.09,2.47-3.13.87-1.1,1.75-2.2,2.63-3.29.78-.95,1.55-1.9,2.33-2.85.85-1.05,1.72-2.09,2.59-3.13.85-1.02,1.7-2.04,2.56-3.06.85-1,1.7-1.99,2.55-2.99.01-.02.03-.05.05-.07.87-1,1.73-1.99,2.59-2.98.68-.79,1.36-1.56,2.05-2.34,1.06-1.22,2.13-2.43,3.22-3.63.89-.99,1.78-1.98,2.67-2.96,1.03-1.14,2.06-2.26,3.1-3.38,1.67-1.8,3.35-3.59,5.04-5.37.91-.96,1.83-1.92,2.75-2.88.92-.95,1.85-1.9,2.78-2.85.98-1.01,1.97-2.02,2.97-3.02.88-.88,1.76-1.76,2.64-2.63.94-.94,1.89-1.87,2.84-2.8.94-.93,1.9-1.85,2.85-2.77.88-.85,1.76-1.69,2.64-2.53.13-.13.27-.26.41-.39.9-.86,1.81-1.72,2.73-2.57.97-.91,1.94-1.81,2.91-2.71.98-.9,1.96-1.8,2.94-2.69.95-.87,1.91-1.73,2.87-2.59,1.02-.92,2.04-1.83,3.07-2.73.99-.88,1.99-1.75,2.99-2.62.97-.85,1.95-1.69,2.93-2.53,1.03-.9,2.08-1.78,3.12-2.66,1.02-.86,2.04-1.71,3.06-2.56,1.02-.85,2.04-1.7,3.07-2.54,3.1-2.55,6.23-5.06,9.39-7.53,1.03-.8,2.06-1.61,3.1-2.41,1.2-.94,2.42-1.87,3.64-2.79.85-.64,1.71-1.29,2.56-1.93,1.14-.86,2.29-1.71,3.44-2.55,1.05-.78,2.09-1.54,3.14-2.3,1.04-.76,2.09-1.52,3.14-2.27,1.11-.8,2.23-1.59,3.36-2.38,1.09-.77,2.18-1.53,3.27-2.29,1.1-.76,2.2-1.52,3.3-2.27,1.08-.74,2.16-1.47,3.24-2.19,1.13-.77,2.26-1.52,3.4-2.27,1.12-.74,2.23-1.47,3.35-2.2,19.49-12.69,39.86-24.17,61-34.35.94-.45,1.83-.77,2.68-.96.02,0,.03-.01.05-.01,1.32-.36,2.71-.55,4.14-.55,8.75,0,15.85,7.1,15.85,15.85Z"/>
  <path class="cls-1" d="m347.62,103.82c-.38.31-.8.6-1.26.86.43-.27.86-.55,1.26-.86Z"/>
  <path class="cls-3" d="m169.71,259.61c.37-.44.74-.84,1.11-1.21-.39.38-.76.79-1.11,1.21Z"/>
  <path class="cls-1" d="m320.1,208.22c0,4.63-2,8.8-5.18,11.68-.53.56-1.14,1.1-1.83,1.61-24.58,18.05-47.14,38.64-67.31,61.39-.87.98-1.8,1.81-2.81,2.51h-.01c-5.81,4.06-13.57,3.49-19.38-1.22l.77-.38c-6.52-5.28-8.58-13.97-3.12-21.03.02-.02.04-.05.06-.07.22-.29.47-.58.72-.87,21.66-24.43,45.88-46.54,72.27-65.92.4-.29.8-.56,1.19-.8.09-.06.17-.12.26-.16,2.47-1.61,5.41-2.54,8.57-2.54,8.73,0,15.8,7.07,15.8,15.8Z"/>
  <path class="cls-1" d="m242.96,285.41c-2.65,2.02-5.96,3.22-9.55,3.22-8.72,0-15.79-7.08-15.79-15.8,0-3.81,1.36-7.32,3.61-10.05-5.46,7.06-3.4,15.75,3.12,21.03l-.77.38c5.81,4.71,13.57,5.28,19.38,1.22Z"/>
  <path class="cls-2" d="m213.52,100.15c-.47.36-.95.72-1.42,1.09.45-.39.92-.76,1.42-1.09Z"/>
  <path class="cls-1" d="m204.11,141.42c0,5.2-2.5,9.81-6.36,12.7-.01.01-.02.02-.03.02-.15.14-.31.28-.47.43-49.59,44.41-91.07,97.61-122.14,157.25-.71,1.36-1.41,2.46-2.12,3.32-.03.04-.06.08-.08.11-2.83,4.11-7.56,6.8-12.92,6.8-8.66,0-15.67-7.01-15.67-15.67,0-2.23.46-4.35,1.31-6.27.32-.91.75-1.88,1.29-2.91,32.84-63.06,76.68-119.3,129.11-166.25.6-.54,1.18-1.01,1.75-1.43.02-.01.04-.03.06-.04,2.78-2.44,6.44-3.91,10.42-3.91,8.76,0,15.85,7.1,15.85,15.85Z"/>
  <path class="cls-2" d="m178.77,108.03c0,4.77-2.11,9.05-5.45,11.96-34.4,30.26-65.21,64.45-91.86,101.84-.74,1.04-1.45,1.91-2.15,2.65-.01.01-.01.02-.02.03-2.86,3.82-7.42,6.29-12.56,6.29-8.65,0-15.67-7.01-15.67-15.67,0-3.25.98-6.26,2.67-8.76.01-.01.02-.02.02-.03.48-.9,1.08-1.86,1.81-2.89,28.03-39.35,60.51-75.29,96.7-107.15.03-.03.07-.06.1-.09,2.8-2.5,6.5-4.03,10.56-4.03,8.75,0,15.85,7.1,15.85,15.85Z"/>
  <path class="cls-3" d="m271.41,40.68c0,5.24-2.57,9.87-6.52,12.72-.85.71-1.9,1.44-3.15,2.19-9.74,5.81-19.29,11.9-28.66,18.23-1.29.87-2.36,1.47-3.26,1.82-2.24,1.24-4.82,1.94-7.55,1.94-8.65,0-15.67-7.01-15.67-15.67,0-5.14,2.47-9.7,6.3-12.55,0-.01.01-.01.02-.01.63-.58,1.4-1.17,2.31-1.79,9.86-6.68,19.92-13.08,30.18-19.21,1.24-.74,2.37-1.32,3.42-1.74,2.08-1.03,4.43-1.6,6.91-1.6,8.65,0,15.67,7.02,15.67,15.67Z"/>
</svg>