<svg xmlns="http://www.w3.org/2000/svg" width="2894.592" height="2512.6" viewBox="0 0 2894.592 2512.6">
  <g id="Group_78" data-name="Group 78" transform="translate(2029.825 343.278)">
    <g id="Layer_1" data-name="Layer 1" transform="matrix(-0.438, 0.899, -0.899, -0.438, 1084, 480.043)">
      <path id="Path_21" data-name="Path 21" d="M24.613,196.485A3784.9,3784.9,0,0,0,941.08,1193.119c63.372,47.846,108.683,18.167,146.073-36.016l9.823,5.809c37.39-54.288,46.473-116.182-11.935-159.909a3547.89,3547.89,0,0,1-858.8-933.893C186.952,7,110.9-18.346,53.659,14.291s-71.5,115.021-29.046,182.089" transform="translate(707.864 377.455)" fill="#ad13ad"/>
      <path id="Path_22" data-name="Path 22" d="M14.456,158.409A4098.069,4098.069,0,0,0,1323.3,1535.8c72.032,46.9,159.38,36.544,192.756-20.174s4.542-135.722-62.527-179.555A3859.057,3859.057,0,0,1,220.839,38.953c-40.348-69.288-69.5-31.053-127.907-.634l11.618-.74C57.232,62.188-2.655,79.827.091,124.61a278.179,278.179,0,0,0,14.364,33.8" transform="translate(373.171 450.493)" fill="#ad13ad"/>
      <path id="Union_3" data-name="Union 3" d="M10066.29,1421.794l-.134.09-2.645-2q-3.158-2.238-6.16-4.673A4409.484,4409.484,0,0,1,8997.808,260.059c-49.431-78.16-40.349-169.732,16.9-202.262s138.574,2.112,184.942,75.307a4132.88,4132.88,0,0,0,998.659,1090.5,119.076,119.076,0,0,1-65.964,218.137h-.071A118.466,118.466,0,0,1,10066.29,1421.794Z" transform="translate(-8795.227 647.642)" fill="#ad13ad"/>
      <path id="Union_2" data-name="Union 2" d="M10308.43-618.075q-4.118-2.575-8.275-5.628a3476.882,3476.882,0,0,1-542.574-494.939q-2.086-2.346-4.018-4.733a118.149,118.149,0,0,1-29.039-77.792,118.61,118.61,0,0,1,118.718-118.576,117.966,117.966,0,0,1,71.229,23.787,120.176,120.176,0,0,1,21.61,19.2,3234.773,3234.773,0,0,0,505.285,460.927,102.438,102.438,0,0,1,13.847,12.052,118.2,118.2,0,0,1,38.754,87.654,118.61,118.61,0,0,1-118.575,118.718A118.044,118.044,0,0,1,10308.43-618.075Z" transform="translate(-8423.491 1973.532)" fill="#0db4ef"/>
      <path id="Union_1" data-name="Union 1" d="M8579.623-559.094c-12.141-6.48-24.2-17.013-36.125-32.431A3787.294,3787.294,0,0,1,8121.017-1278.9v-.317c-4.617-9.645-7.508-17.923-8.906-25.081a117.608,117.608,0,0,1,3.545-81.148,117.662,117.662,0,0,1,109.082-72.268,117.57,117.57,0,0,1,83.23,34.431,117.549,117.549,0,0,1,20.42,27.467,110.876,110.876,0,0,1,7.989,14.255A3547.029,3547.029,0,0,0,8732.24-737.28a132.069,132.069,0,0,1,9.587,14.159,118.891,118.891,0,0,1,16.923,61.254,119.033,119.033,0,0,1-119.031,119.034A118.484,118.484,0,0,1,8579.623-559.094Z" transform="translate(-7606.435 1457.717)" fill="#2fed39"/>
      <path id="Path_27" data-name="Path 27" d="M9.587,172.583a4096.373,4096.373,0,0,0,1476.044,1200.9c78.158,37.707,113.119-51.754,139-112.275L1607.2,1326.59c25.983-60.626,54.923-132.659-17.85-167.725A3860.425,3860.425,0,0,1,199.07,27.883C127.776,4.118,106.335-17.111,52.257,20.49l6.548,13.1c-54.078,37.5-71.821,62.738-49.219,139" transform="translate(668.707 870.629)" fill="#0db4ef"/>
      <path id="Union_4" data-name="Union 4" d="M9494.19,1261.984q-6-4.49-12.275-10.112A4407.1,4407.1,0,0,1,8512.638,3.651h-.212A177.715,177.715,0,0,1,8502.078-19.8a117.282,117.282,0,0,1-9.084-45.414,117.662,117.662,0,0,1,117.66-117.663,117.538,117.538,0,0,1,96.751,50.685c5.613,6.66,11.222,15.246,16.9,26.1a4171.286,4171.286,0,0,0,916.89,1180.621q2.076,1.857,4,3.682a119.04,119.04,0,0,1-71.424,214.214h-.067A118.589,118.589,0,0,1,9494.19,1261.984Zm198.545-88.622v0Z" transform="translate(-8492.993 585.71)" fill="#0db4ef"/>
      <path id="Union_5" data-name="Union 5" d="M10980.053,1262.763a117.168,117.168,0,0,1-52.547-12.374,190.7,190.7,0,0,1-24.942-12.763q-115.443-68.863-226.029-143.855l-.526-1.056c-4.442-2.994-8.418-5.91-11.962-8.759a117.819,117.819,0,0,1,120.423-202.2c7,2.635,15.391,7.206,25.569,14.08q105.41,71.823,215.254,137.305a186.653,186.653,0,0,1,22.938,15.975,117.7,117.7,0,0,1-68.141,213.644Z" transform="translate(-9392.826 1370.139)" fill="#2fed39"/>
      <path id="Path_33" data-name="Path 33" d="M235.322,117.66A117.661,117.661,0,1,1,117.661,0,117.662,117.662,0,0,1,235.322,117.66" transform="translate(366.714 418.785)" fill="#ad13ad"/>
      <path id="Path_38" data-name="Path 38" d="M238.28,119.14A119.14,119.14,0,1,1,119.14,0,119.14,119.14,0,0,1,238.28,119.14" transform="translate(653.367 851.195)" fill="#0db4ef"/>
      <path id="Path_40" data-name="Path 40" d="M237.223,118.295a118.453,118.453,0,1,0,0,.317" transform="translate(1614.829 1365.459)" fill="#ad13ad"/>
      <path id="Path_41" data-name="Path 41" d="M238.068,118.929A119.034,119.034,0,1,1,119.14,0,119.034,119.034,0,0,1,238.068,118.929" transform="translate(2086.846 2017.559)" fill="#0db4ef"/>
      <path id="Path_44" data-name="Path 44" d="M238.068,119.141A119.034,119.034,0,1,1,119.456,0a119.034,119.034,0,0,1,118.612,119.14" transform="translate(771.028 1890.602)" fill="#ad13ad"/>
    </g>
    <text id="E-Payment" transform="translate(180 392)" fill="#fefeff" font-size="57" font-family="Helvetica-Bold, Helvetica" font-weight="700" letter-spacing="-0.043em"><tspan x="0" y="0">E-Payment</tspan></text>
    <text id="E-Voucher" transform="translate(102 715.74)" fill="#fefeff" font-size="57" font-family="Helvetica-Bold, Helvetica" font-weight="700" letter-spacing="-0.043em"><tspan x="0" y="0">E-Voucher</tspan></text>
    <text id="IT_solutions_" data-name="IT solutions " transform="translate(241.5 1011.758)" fill="#fefeff" font-size="57" font-family="Helvetica-Bold, Helvetica" font-weight="700" letter-spacing="-0.043em"><tspan x="0" y="0">IT solutions </tspan></text>
  </g>
</svg>
