<svg xmlns="http://www.w3.org/2000/svg" viewBox="0 0 244.8 363.16"><defs><style>.cls-1{fill:#ad13ad;}.cls-2{fill:#0db4ef;}.cls-3{fill:#2fed39;}</style></defs><g id="Layer_2" data-name="Layer 2"><g id="Layer_1-2" data-name="Layer 1"><path d="M9.34,291.65a20.11,20.11,0,0,0-1.23,3.75,19.41,19.41,0,0,0-.51,4.45A15,15,0,0,0,8,303.06a6,6,0,0,0,1.36,2.65,6.72,6.72,0,0,0,2.82,1.81,14.58,14.58,0,0,0,4.84.66l12.45,0V295q0-6.78,3.76-10.46T44,280.88l4,.08c1.32,0,2.66.07,4,.13a3.55,3.55,0,0,1,2.65,1.16,3.72,3.72,0,0,1,1,2.65v23.24h6.67v7.45H51.9a3.71,3.71,0,0,1-2.71-1.07,3.55,3.55,0,0,1-1.11-2.65V288.38l-4.29-.09a12.42,12.42,0,0,0-3.25.36,4,4,0,0,0-3.14,3.21,13.31,13.31,0,0,0-.32,3.14l0,16.45a4.38,4.38,0,0,1-1,2.94,3.53,3.53,0,0,1-2.84,1.2H17a20.73,20.73,0,0,1-8-1.36,14.34,14.34,0,0,1-5.27-3.61,13.8,13.8,0,0,1-2.89-5.09A19.7,19.7,0,0,1,0,299.69a26.42,26.42,0,0,1,.74-6.26,25.76,25.76,0,0,1,1.85-5.26Zm2.21,30.43a4.14,4.14,0,0,1,.32-1.62,3.91,3.91,0,0,1,.89-1.3,4,4,0,0,1,1.32-.87,4.17,4.17,0,0,1,1.64-.32,4.29,4.29,0,0,1,1.65.32,4,4,0,0,1,2.23,2.17,4.14,4.14,0,0,1,.32,1.62,3.81,3.81,0,0,1-1.21,2.86,4.18,4.18,0,0,1-3,1.16,4.11,4.11,0,0,1-3-1.16,3.86,3.86,0,0,1-1.19-2.86m11.73,0a4.14,4.14,0,0,1,.31-1.62,4.19,4.19,0,0,1,2.21-2.17,4.17,4.17,0,0,1,1.64-.32,4.12,4.12,0,0,1,1.63.32,4.1,4.1,0,0,1,2.21,2.17,4.14,4.14,0,0,1,.32,1.62,3.86,3.86,0,0,1-1.19,2.86,4.39,4.39,0,0,1-5.95,0,3.86,3.86,0,0,1-1.18-2.86"/><path d="M61.38,308.14H73.65V282.29h7.6v29.2a1.46,1.46,0,0,1,0,.38,3.56,3.56,0,0,1-1.11,2.65,3.76,3.76,0,0,1-2.72,1.07H61.38Zm11.89-38a3.91,3.91,0,0,1,1.19-2.92,4,4,0,0,1,3-1.18,4.13,4.13,0,0,1,3,1.18,3.93,3.93,0,0,1,1.21,2.92,3.87,3.87,0,0,1-1.21,2.9,4.19,4.19,0,0,1-3,1.16,4.09,4.09,0,0,1-3-1.16,3.85,3.85,0,0,1-1.19-2.9"/><path d="M107,315.59H94.55a3.75,3.75,0,0,1-2.7-1.07,3.53,3.53,0,0,1-1.13-2.65,1.46,1.46,0,0,1,0-.38V265.8h7.6v42.34H107Z"/><rect x="106.06" y="308.14" width="18.18" height="7.46"/><rect x="123.35" y="308.14" width="18.18" height="7.46"/><path d="M140.68,315.59v-7.45h8.92a25.47,25.47,0,0,1-2-5.1,19.4,19.4,0,0,1-.64-4.76,19.92,19.92,0,0,1,1.07-6.45,16.73,16.73,0,0,1,3.14-5.57,15.43,15.43,0,0,1,5.14-3.91,16.18,16.18,0,0,1,7.09-1.47h11.47a5,5,0,0,1,2,.41,5.11,5.11,0,0,1,1.61,1.12A5.6,5.6,0,0,1,179.6,284,4.69,4.69,0,0,1,180,286v22.17h6.5v7.45Zm14.73-13a10,10,0,0,0,1.13,2.17,7.47,7.47,0,0,0,1.7,1.76,8,8,0,0,0,2.29,1.18,9.16,9.16,0,0,0,2.91.44h9V288.33h-9a8.29,8.29,0,0,0-3.95.88,8.1,8.1,0,0,0-2.74,2.27,9.79,9.79,0,0,0-1.61,3.19,12.38,12.38,0,0,0-.53,3.61,13.31,13.31,0,0,0,.17,2.17,8.2,8.2,0,0,0,.63,2.14m5.82-32.32a4,4,0,0,1,1.21-2.92,4.07,4.07,0,0,1,3-1.18,4.48,4.48,0,0,1,1.65.31,4.19,4.19,0,0,1,1.34.87,4.05,4.05,0,0,1,1.21,2.92,4,4,0,0,1-2.55,3.75,4.29,4.29,0,0,1-1.65.31,4.09,4.09,0,0,1-3-1.16,3.87,3.87,0,0,1-1.21-2.9"/><path d="M186,315.59v-7.45h8.83V282.29h7.61v25.85h7.94v7.45Zm1.31-45.32a4,4,0,0,1,1.19-2.92,4.34,4.34,0,0,1,6,0,4,4,0,0,1,1.19,2.92,3.89,3.89,0,0,1-1.19,2.9,4.39,4.39,0,0,1-6,0,3.89,3.89,0,0,1-1.19-2.9m11.73,0a3.93,3.93,0,0,1,1.19-2.92,4,4,0,0,1,2.93-1.18,4.44,4.44,0,0,1,1.65.31,4.19,4.19,0,0,1,1.34.87,4.06,4.06,0,0,1,.89,1.31,3.89,3.89,0,0,1,.32,1.61,3.84,3.84,0,0,1-.32,1.6,4.1,4.1,0,0,1-2.23,2.15,4.25,4.25,0,0,1-1.65.31,4,4,0,0,1-2.93-1.16,3.85,3.85,0,0,1-1.19-2.9"/><path d="M209.82,308.14h8.37V265.8h7.6v45.69a1.46,1.46,0,0,1,.05.38,3.53,3.53,0,0,1-1.13,2.65,3.75,3.75,0,0,1-2.7,1.07H209.82Z"/><rect x="237.05" y="265.8" width="7.56" height="49.71"/><path d="M17.24,354.35v2.95H11.12v-8.21a3.32,3.32,0,0,0-.29-1.5,4,4,0,0,0-.85-1.24,4,4,0,0,0-1.27-.86,3.9,3.9,0,0,0-3.07,0,4.09,4.09,0,0,0-1.26.86,3.91,3.91,0,0,0-.84,1.27,4,4,0,0,0-.31,1.58v3.31a1.8,1.8,0,0,0,.15.73,1.94,1.94,0,0,0,.4.58,1.91,1.91,0,0,0,.6.4,2,2,0,0,0,.74.14H8.43v2.95H5.12a4.86,4.86,0,0,1-1.91-.38,5.07,5.07,0,0,1-1.57-1,4.94,4.94,0,0,1-1.06-1.53,4.49,4.49,0,0,1-.39-1.86v-3.32a6.87,6.87,0,0,1,.55-2.71,7.2,7.2,0,0,1,1.5-2.21,7.11,7.11,0,0,1,2.21-1.49,6.78,6.78,0,0,1,2.72-.55,6.74,6.74,0,0,1,2.71.55,7.32,7.32,0,0,1,2.23,1.49,6.85,6.85,0,0,1,1.51,2.2,6.23,6.23,0,0,1,.54,2.63v5.25ZM3.45,337.87a1.4,1.4,0,0,1,.12-.58,1.58,1.58,0,0,1,.33-.48,1.67,1.67,0,0,1,.5-.33,1.46,1.46,0,0,1,.6-.12,1.53,1.53,0,0,1,.6.12,1.64,1.64,0,0,1,.83.81,1.4,1.4,0,0,1,.12.58,1.48,1.48,0,0,1-.12.59,1.45,1.45,0,0,1-.34.47,1.8,1.8,0,0,1-.49.32,1.53,1.53,0,0,1-.6.12,1.46,1.46,0,0,1-.6-.12,1.86,1.86,0,0,1-.5-.32,1.43,1.43,0,0,1-.33-.47A1.48,1.48,0,0,1,3.45,337.87Zm4.52,0a1.4,1.4,0,0,1,.12-.58,1.42,1.42,0,0,1,.33-.48,1.63,1.63,0,0,1,.49-.33,1.53,1.53,0,0,1,.6-.12,1.46,1.46,0,0,1,.6.12,1.51,1.51,0,0,1,.49.33,1.58,1.58,0,0,1,.33.48,1.47,1.47,0,0,1-.33,1.64,1.51,1.51,0,0,1-1.09.44,1.53,1.53,0,0,1-.6-.12,1.8,1.8,0,0,1-.49-.32,1.29,1.29,0,0,1-.33-.47A1.48,1.48,0,0,1,8,337.87Zm7.92,16.48h6.84v2.95H15.89Zm5.49,0h6.84v2.95H21.38Zm5.49,0h6.85v2.95H26.87Zm13.69-12.14v12.14h3.1v2.95H32.36v-2.95h5.17V342.21Zm-7.64,19.46a1.4,1.4,0,0,1,.12-.58,1.51,1.51,0,0,1,.33-.49,1.63,1.63,0,0,1,1.1-.44,1.45,1.45,0,0,1,.59.12,1.38,1.38,0,0,1,.5.32,1.51,1.51,0,0,1,.33.49,1.46,1.46,0,0,1,0,1.16,1.58,1.58,0,0,1-.33.48,1.71,1.71,0,0,1-.5.32,1.66,1.66,0,0,1-1.19,0,1.86,1.86,0,0,1-.5-.32,1.58,1.58,0,0,1-.33-.48A1.4,1.4,0,0,1,32.92,361.67Zm4.51,0a1.4,1.4,0,0,1,.12-.58,1.54,1.54,0,0,1,.34-.49,1.47,1.47,0,0,1,.5-.32,1.56,1.56,0,0,1,1.2,0,1.34,1.34,0,0,1,.49.32,1.51,1.51,0,0,1,.33.49,1.4,1.4,0,0,1,.12.58,1.43,1.43,0,0,1-.45,1.06,1.5,1.5,0,0,1-1.09.43,1.73,1.73,0,0,1-.6-.11,1.86,1.86,0,0,1-.5-.32,1.61,1.61,0,0,1-.34-.48A1.4,1.4,0,0,1,37.43,361.67ZM50.5,342.21v12.14h3.09v2.95H42.3v-2.95h5.17V342.21Zm-4.28-4.34a1.4,1.4,0,0,1,.12-.58,1.45,1.45,0,0,1,.34-.48,1.51,1.51,0,0,1,.49-.33,1.56,1.56,0,0,1,1.2,0,1.47,1.47,0,0,1,.48.33,1.58,1.58,0,0,1,.33.48,1.47,1.47,0,0,1-.33,1.64,1.49,1.49,0,0,1-1.08.44,1.53,1.53,0,0,1-.6-.12,1.66,1.66,0,0,1-.49-.32,1.32,1.32,0,0,1-.34-.47A1.48,1.48,0,0,1,46.22,337.87Zm6,19.43v-2.95h3.1V349a6.57,6.57,0,0,1,.54-2.67,6.63,6.63,0,0,1,3.67-3.56,6.88,6.88,0,0,1,2.68-.52,7,7,0,0,1,4.9,2,6.73,6.73,0,0,1,1.49,2.11,6.16,6.16,0,0,1,.55,2.6v5.48h3.08v2.95Zm6.13-2.95h7.75v-5.49A3.56,3.56,0,0,0,65,346.23a4.12,4.12,0,0,0-1.23-.79,4.24,4.24,0,0,0-3,0,4,4,0,0,0-1.23.8,3.89,3.89,0,0,0-.83,1.21,3.72,3.72,0,0,0-.3,1.5Zm.08-16.48a1.4,1.4,0,0,1,.12-.58,1.58,1.58,0,0,1,.33-.48,1.67,1.67,0,0,1,.5-.33,1.54,1.54,0,0,1,1.19,0,1.56,1.56,0,0,1,.5.33,1.58,1.58,0,0,1,.33.48,1.4,1.4,0,0,1,.12.58,1.48,1.48,0,0,1-.12.59,1.43,1.43,0,0,1-.33.47,1.71,1.71,0,0,1-.5.32,1.54,1.54,0,0,1-1.19,0,1.86,1.86,0,0,1-.5-.32,1.43,1.43,0,0,1-.33-.47A1.48,1.48,0,0,1,58.44,337.87Zm4.5,0a1.4,1.4,0,0,1,.12-.58,1.58,1.58,0,0,1,.33-.48,1.67,1.67,0,0,1,.5-.33,1.54,1.54,0,0,1,1.19,0,1.51,1.51,0,0,1,.49.33,1.58,1.58,0,0,1,.33.48,1.47,1.47,0,0,1-.33,1.64,1.5,1.5,0,0,1-1.08.44,1.46,1.46,0,0,1-.6-.12,1.86,1.86,0,0,1-.5-.32,1.43,1.43,0,0,1-.33-.47A1.48,1.48,0,0,1,62.94,337.87Zm16.17,4.34v12.14h3.1v2.95H70.91v-2.95h5.17V342.21Zm-7.58-4.34a1.4,1.4,0,0,1,.12-.58,1.58,1.58,0,0,1,.33-.48,1.47,1.47,0,0,1,.48-.33,1.56,1.56,0,0,1,1.2,0,1.51,1.51,0,0,1,.49.33,1.45,1.45,0,0,1,.34.48,1.4,1.4,0,0,1,.12.58,1.48,1.48,0,0,1-.12.59,1.32,1.32,0,0,1-.34.47,1.66,1.66,0,0,1-.49.32,1.53,1.53,0,0,1-.6.12,1.49,1.49,0,0,1-1.08-.44A1.41,1.41,0,0,1,71.53,337.87Zm4.5,0a1.4,1.4,0,0,1,.12-.58,1.45,1.45,0,0,1,.34-.48,1.63,1.63,0,0,1,.49-.33,1.59,1.59,0,0,1,1.21,0,1.63,1.63,0,0,1,.49.33,1.78,1.78,0,0,1,.33.48,1.47,1.47,0,0,1-.33,1.64,1.53,1.53,0,0,1-1.09.44,1.54,1.54,0,0,1-.61-.12,1.8,1.8,0,0,1-.49-.32,1.32,1.32,0,0,1-.34-.47A1.48,1.48,0,0,1,76,337.87Zm11.21-1.51v16.11a4.62,4.62,0,0,1-.39,1.88,4.94,4.94,0,0,1-1.06,1.53,5,5,0,0,1-1.58,1,4.86,4.86,0,0,1-1.93.39H80.86v-2.95h1.41a2.14,2.14,0,0,0,.76-.14,2,2,0,0,0,.62-.41,1.94,1.94,0,0,0,.41-.6,1.8,1.8,0,0,0,.15-.73V336.36Zm6.38,0V357.3h-3V336.36Zm10.79,23.85h4.76a4.05,4.05,0,0,0,2.45-.83,4,4,0,0,0,.86-.92,3.69,3.69,0,0,0,.52-1.16h-5.92a4.81,4.81,0,0,1-1.9-.38,5.07,5.07,0,0,1-1.57-1,4.9,4.9,0,0,1-1.06-1.51,4.51,4.51,0,0,1-.39-1.87v-3.33a6.7,6.7,0,0,1,.55-2.71,7.17,7.17,0,0,1,1.49-2.21,7.28,7.28,0,0,1,2.22-1.49,6.74,6.74,0,0,1,2.71-.55,6.45,6.45,0,0,1,1.87.26,7.3,7.3,0,0,1,1.67.71,7.5,7.5,0,0,1,1.42,1.1,6.85,6.85,0,0,1,1.8,3,6.34,6.34,0,0,1,.25,1.79v7.23a6.45,6.45,0,0,1-.55,2.65,7.25,7.25,0,0,1-1.49,2.16,7.17,7.17,0,0,1-2.22,1.45,6.9,6.9,0,0,1-2.71.54h-4.76Zm8.7-5.86v-5.24a3.88,3.88,0,0,0-.31-1.51,3.93,3.93,0,0,0-.86-1.25,4,4,0,0,0-1.27-.86,3.9,3.9,0,0,0-3.07,0,4,4,0,0,0-1.25.86,4.1,4.1,0,0,0-.85,1.27,4.16,4.16,0,0,0-.31,1.58v3.33a1.74,1.74,0,0,0,.15.71,2,2,0,0,0,.41.58,1.91,1.91,0,0,0,.6.4,2,2,0,0,0,.73.14Zm31-12.14v10.25a4.63,4.63,0,0,1-.38,1.89,5.08,5.08,0,0,1-1,1.53,5.14,5.14,0,0,1-1.58,1,4.78,4.78,0,0,1-1.92.39h-7.4a6.94,6.94,0,0,1-2.74-.54,7.29,7.29,0,0,1-2.24-1.46,6.93,6.93,0,0,1-1.51-2.18,6.43,6.43,0,0,1-.55-2.66V345h3v5.49a3.86,3.86,0,0,0,.31,1.52,4,4,0,0,0,.86,1.24,3.94,3.94,0,0,0,1.27.83,4,4,0,0,0,1.57.3h7.39a2.12,2.12,0,0,0,.75-.14,2,2,0,0,0,1-1,1.85,1.85,0,0,0,.15-.74V342.21Zm-13.48-4.34a1.4,1.4,0,0,1,.12-.58,1.58,1.58,0,0,1,.33-.48,1.67,1.67,0,0,1,.5-.33,1.46,1.46,0,0,1,.6-.12,1.53,1.53,0,0,1,.6.12,1.64,1.64,0,0,1,.83.81,1.58,1.58,0,0,1,.11.58,1.67,1.67,0,0,1-.11.59,1.45,1.45,0,0,1-.34.47,1.8,1.8,0,0,1-.49.32,1.53,1.53,0,0,1-.6.12,1.46,1.46,0,0,1-.6-.12,1.86,1.86,0,0,1-.5-.32,1.43,1.43,0,0,1-.33-.47A1.48,1.48,0,0,1,130.6,337.87Zm4.51,0a1.4,1.4,0,0,1,.12-.58,1.64,1.64,0,0,1,.83-.81,1.53,1.53,0,0,1,.6-.12,1.5,1.5,0,0,1,.6.12,1.51,1.51,0,0,1,.49.33,1.42,1.42,0,0,1,.44,1.06,1.4,1.4,0,0,1-.44,1.06,1.51,1.51,0,0,1-1.09.44,1.53,1.53,0,0,1-.6-.12,1.8,1.8,0,0,1-.49-.32,1.45,1.45,0,0,1-.34-.47A1.48,1.48,0,0,1,135.11,337.87Zm18.22,4.34v12.14H158a2,2,0,0,0,.75-.14,2,2,0,0,0,.61-.41,1.81,1.81,0,0,0,.42-.6,1.85,1.85,0,0,0,.15-.74v-16.1h3v16.1a4.63,4.63,0,0,1-.39,1.89,5,5,0,0,1-2.64,2.56,4.78,4.78,0,0,1-1.92.39H147.42v-2.95h2.88V342.21Zm16-5.85v16.11a1.82,1.82,0,0,0,.57,1.33,2,2,0,0,0,.61.41,2,2,0,0,0,.75.14h1.42v2.95h-1.42a4.78,4.78,0,0,1-1.92-.39,5.14,5.14,0,0,1-1.58-1,4.81,4.81,0,0,1-1.07-1.53,4.62,4.62,0,0,1-.39-1.88V336.36Zm2,18h6.84v2.95h-6.84Zm5.49,0h6.84v2.95h-6.84Zm5.49,0h6.84v2.95h-6.84ZM194,342.23v2.63a14.89,14.89,0,0,1,1.64-1.06,14.33,14.33,0,0,1,1.82-.84,13.16,13.16,0,0,1,1.9-.54,9.37,9.37,0,0,1,1.88-.19,8.29,8.29,0,0,1,2.51.37,5.34,5.34,0,0,1,2.09,1.21,5.76,5.76,0,0,1,1.41,2.17,9.13,9.13,0,0,1,.52,3.26v5.11h3.08v2.95h-23v-2.95H191V342.23Zm7.24,2.94a7.51,7.51,0,0,0-1.67.19,10.58,10.58,0,0,0-1.66.5,9.74,9.74,0,0,0-1.51.77,7.32,7.32,0,0,0-1.25.95,4.58,4.58,0,0,0-.84,1.08,2.23,2.23,0,0,0-.31,1.12v4.57h10.74v-5.12a5.79,5.79,0,0,0-.28-1.89,3.43,3.43,0,0,0-.76-1.25,2.8,2.8,0,0,0-1.12-.7A4,4,0,0,0,201.23,345.17Zm16.47-3v10.25a4.64,4.64,0,0,1-.4,1.89,4.94,4.94,0,0,1-1.06,1.53,5.14,5.14,0,0,1-1.58,1,4.82,4.82,0,0,1-1.93.39h-3.24v-2.95h3.24a1.9,1.9,0,0,0,1.37-.55,1.94,1.94,0,0,0,.41-.6,1.85,1.85,0,0,0,.15-.74V342.21Zm-7.55-4.34a1.4,1.4,0,0,1,.12-.58,1.75,1.75,0,0,1,.32-.48,1.63,1.63,0,0,1,.49-.33,1.56,1.56,0,0,1,1.2,0,1.63,1.63,0,0,1,.49.33,1.45,1.45,0,0,1,.34.48,1.4,1.4,0,0,1,.12.58,1.48,1.48,0,0,1-.12.59,1.32,1.32,0,0,1-.34.47,1.8,1.8,0,0,1-.49.32,1.53,1.53,0,0,1-.6.12,1.51,1.51,0,0,1-1.09-.44A1.44,1.44,0,0,1,210.15,337.87Zm4.5,0a1.4,1.4,0,0,1,.12-.58,1.58,1.58,0,0,1,.33-.48,1.81,1.81,0,0,1,.5-.33,1.59,1.59,0,0,1,1.21,0,1.47,1.47,0,0,1,.48.33,1.58,1.58,0,0,1,.33.48,1.47,1.47,0,0,1-.33,1.64,1.51,1.51,0,0,1-1.09.44,1.53,1.53,0,0,1-.6-.12,2,2,0,0,1-.5-.32,1.43,1.43,0,0,1-.33-.47A1.48,1.48,0,0,1,214.65,337.87ZM227,342.21v12.14h6.66v-18h3v18h3.08v2.95H221.09v-2.95H224V342.21Zm17.81-5.85v16.11a4.62,4.62,0,0,1-.39,1.88,4.87,4.87,0,0,1-2.64,2.56,4.86,4.86,0,0,1-1.93.39h-1.42v-2.95h1.41a2,2,0,0,0,.75-.14,1.92,1.92,0,0,0,.62-.41,1.82,1.82,0,0,0,.57-1.33V336.36Z"/><path class="cls-1" d="M117.11,195.54a328.77,328.77,0,0,1,46.12-52c5.08-4.63,12.59-4.32,16.58.47a11.8,11.8,0,0,1-1.36,16.21,306,306,0,0,0-43,48.44c-3.68,5.14-9.11,4.2-14.34.82l.31-.31c-5.23-3.39-8.35-8-4.35-13.62"/><path class="cls-1" d="M81.81,194.94a358.35,358.35,0,0,1,86.77-94.36c6-4.53,10.29-1.72,13.83,3.41l.93-.55c3.54,5.14,4.4,11-1.13,15.14A335.91,335.91,0,0,0,100.9,207c-3.72,5.88-10.92,8.28-16.34,5.19s-6.77-10.89-2.75-17.24"/><path class="cls-1" d="M49.16,191.63A388,388,0,0,1,173.08,61.22c6.82-4.44,15.09-3.46,18.25,1.91s.43,12.85-5.92,17A365.37,365.37,0,0,0,68.7,202.94c-3.82,6.56-6.58,2.94-12.11.06l1.1.07c-4.48-2.33-10.15-4-9.89-8.24a26.34,26.34,0,0,1,1.36-3.2"/><path class="cls-1" d="M31.64,163.34a417.47,417.47,0,0,1,101.15-110c4.66,3.16,3.58,1.41,7.12,6.53l3.15-2.29c3.54,5.13-.49,9.37,2.8,14.11A391.29,391.29,0,0,0,50.75,175.36c-4.39,6.93-12.09,10.21-17.51,7.13s-6.28-11.75-1.6-19.15"/><path class="cls-1" d="M20.45,126.84A447.38,447.38,0,0,1,89.26,50.61c5.62,2.18,8.24-1.3,12.16,3.54l-.31.7c3.91,4.85,1,5.94,3,12.66a425,425,0,0,0-65.3,72.39c-5.1,7.16-8.38,3.71-13.63.33S15,134.45,20.45,126.84"/><path class="cls-2" d="M138.77,168.34a329.19,329.19,0,0,1,51.37-46.86c5.55-4.08,10.61-1.28,14.07,3.9l-.29-.43c3.46,5.19,4.69,11-.41,14.72a306.28,306.28,0,0,0-47.84,43.64c-4.19,4.72-10.94,4.85-15.79.92l.55-.27c-4.84-3.92-6.22-10.49-1.66-15.62"/><path class="cls-3" d="M61.18,232.35a358.58,358.58,0,0,1,40-65.08c4.58-5.92,9.35-4.23,14.11-.21l.87-.88c4.76,4,7.13,9.4,2.89,14.89a335.82,335.82,0,0,0-37.48,61c-3,6.33-7.61,3.11-13.36.69l1.29-1.57c-5.75-2.41-11.58-2-8.32-8.81"/><path class="cls-2" d="M76.68,150.51A387.84,387.84,0,0,1,216.43,36.81c7.4-3.57,10.71,4.9,13.16,10.63l-1.65-6.19c2.46,5.74,5.2,12.56-1.69,15.88A365.5,365.5,0,0,0,94.62,164.21c-6.75,2.25-8.78,4.26-13.9.7l.62-1.24c-5.12-3.55-6.8-5.94-4.66-13.16"/><path class="cls-2" d="M14.32,193.48A417.26,417.26,0,0,1,106.09,75.3c6.48-5.81,10.45-1.7,14.41,3.12l-1.45.48c4,4.82,8.2,7.75,2.12,13.19A394.93,394.93,0,0,0,34.36,203.87c-3.82,7.31-7.32,3.74-13,1.12l-.83,1.6c-5.66-2.61-10.31-5.31-6.23-13.11"/><path class="cls-3" d="M134,16Q144.47,8.9,155.4,2.38c8.07-4.83,10,.32,12.95,5.8s6.25,9-1.33,13.56q-10.4,6.2-20.38,13c-7.3,4.93-4.91-2.65-8.65-7.64l-.86,2c-3.72-5-10.94-7.77-3.18-13"/><path class="cls-3" d="M150.09,26.23A11.14,11.14,0,1,0,139,37.37a11.13,11.13,0,0,0,11.13-11.14"/><path class="cls-1" d="M39.54,135.14A11.14,11.14,0,1,0,28.4,146.28a11.14,11.14,0,0,0,11.14-11.14"/><path class="cls-2" d="M34.74,200A11.14,11.14,0,1,0,23.6,211.14,11.14,11.14,0,0,0,34.74,200"/><path class="cls-1" d="M69.46,198.49a11.14,11.14,0,1,0-11.14,11.14,11.14,11.14,0,0,0,11.14-11.14"/><path class="cls-3" d="M82.09,238.14A11.14,11.14,0,1,0,71,249.28a11.13,11.13,0,0,0,11.14-11.14"/><path class="cls-1" d="M137,202.63a11.14,11.14,0,1,0-11.14,11.13A11.14,11.14,0,0,0,137,202.63"/><path class="cls-2" d="M158.1,176.16a11.23,11.23,0,1,0-11.22,11.22,11.22,11.22,0,0,0,11.22-11.22"/><path class="cls-3" d="M121.56,173.93a11.27,11.27,0,1,0-11.27,11.27,11.26,11.26,0,0,0,11.27-11.27"/><path class="cls-2" d="M96.88,157.41A11.28,11.28,0,1,0,85.6,168.69a11.28,11.28,0,0,0,11.28-11.28"/><path class="cls-2" d="M208.49,130.23a11.23,11.23,0,1,0-11.22,11.22,11.22,11.22,0,0,0,11.22-11.22"/><path class="cls-1" d="M187.81,108.8A11.23,11.23,0,1,0,176.58,120a11.23,11.23,0,0,0,11.23-11.23"/><path class="cls-2" d="M232.58,47a11.27,11.27,0,1,0-11.26,11.26A11.27,11.27,0,0,0,232.58,47"/><path class="cls-1" d="M150.32,62.74A11.27,11.27,0,1,0,139.05,74a11.26,11.26,0,0,0,11.27-11.26"/><path class="cls-2" d="M126.05,82.74A11.27,11.27,0,1,0,114.78,94a11.27,11.27,0,0,0,11.27-11.27"/><path class="cls-1" d="M108,59A11.27,11.27,0,1,0,96.77,70.28,11.27,11.27,0,0,0,108,59"/><path class="cls-3" d="M173.88,11.14a11.14,11.14,0,1,0-11.13,11.14,11.13,11.13,0,0,0,11.13-11.14"/><path class="cls-3" d="M156.35,267.39q5.55-3.75,11.32-7.2c4.25-2.54,5.26.17,6.83,3.06s3.29,4.76-.71,7.15q-5.47,3.27-10.74,6.84c-3.85,2.6-2.59-1.4-4.56-4l-.46,1.05c-2-2.63-5.77-4.1-1.68-6.87"/><path class="cls-3" d="M164.87,272.77a5.88,5.88,0,1,0-5.88,5.87,5.87,5.87,0,0,0,5.88-5.87"/><path class="cls-3" d="M177.41,264.81a5.87,5.87,0,1,0-5.87,5.88,5.87,5.87,0,0,0,5.87-5.88"/></g></g></svg>